<svg xmlns="http://www.w3.org/2000/svg" viewBox="0 0 900 372" width="900" height="372" font-family="-apple-system, 'Segoe UI', Roboto, 'Helvetica Neue', Arial, sans-serif">
  <rect width="900" height="372" fill="#f8fafc" rx="6"/>
  <text x="24" y="30" font-size="16" font-weight="700" fill="#1a1d23">Değerlendirme rubriği — 3 Ağustos 2026 durumu</text>
    <rect x="24" y="58" width="852" height="42" fill="#fff" stroke="#e5e7eb" rx="5"/>  <rect x="24" y="58" width="4" height="42" fill="#b91c1c" rx="2"/>  <text x="40" y="77" font-size="12.5" font-weight="700" fill="#1a1d23">Model Başarısı ve Anlamlandırma</text>  <text x="40" y="93" font-size="10" fill="#6b7280">Ölçüm altyapısı hazır, GOLD SETİ DONDURULMADI → P/R/F1 yok</text>  <rect x="560" y="70" width="120" height="18" fill="#b91c1c" opacity="0.85" rx="3"/>  <text x="688" y="84" font-size="12" font-weight="700" fill="#1a1d23" font-family="ui-monospace, 'SF Mono', Menlo, Consolas, monospace">%30</text>  <text x="866" y="84" font-size="10.5" font-weight="600" fill="#b91c1c" text-anchor="end">⏳ ölçülmedi</text>  <rect x="24" y="108" width="852" height="42" fill="#fff" stroke="#e5e7eb" rx="5"/>  <rect x="24" y="108" width="4" height="42" fill="#15803d" rx="2"/>  <text x="40" y="127" font-size="12.5" font-weight="700" fill="#1a1d23">Fonksiyonellik ve Senaryo Kapsamı</text>  <text x="40" y="143" font-size="10" fill="#6b7280">5/5 ölçüt · dashboard + chatbot · uçtan uca çalışıyor</text>  <rect x="560" y="120" width="80" height="18" fill="#15803d" opacity="0.85" rx="3"/>  <text x="648" y="134" font-size="12" font-weight="700" fill="#1a1d23" font-family="ui-monospace, 'SF Mono', Menlo, Consolas, monospace">%20</text>  <text x="866" y="134" font-size="10.5" font-weight="600" fill="#15803d" text-anchor="end">✓ kanıtlı</text>  <rect x="24" y="158" width="852" height="42" fill="#fff" stroke="#e5e7eb" rx="5"/>  <rect x="24" y="158" width="4" height="42" fill="#15803d" rx="2"/>  <text x="40" y="177" font-size="12.5" font-weight="700" fill="#1a1d23">Teknik İmplementasyon ve Mimari</text>  <text x="40" y="193" font-size="10" fill="#6b7280">890 test · ruff CI kapısı · değişmez denetimi · modüler</text>  <rect x="560" y="170" width="80" height="18" fill="#15803d" opacity="0.85" rx="3"/>  <text x="648" y="184" font-size="12" font-weight="700" fill="#1a1d23" font-family="ui-monospace, 'SF Mono', Menlo, Consolas, monospace">%20</text>  <text x="866" y="184" font-size="10.5" font-weight="600" fill="#15803d" text-anchor="end">✓ kanıtlı</text>  <rect x="24" y="208" width="852" height="42" fill="#fff" stroke="#e5e7eb" rx="5"/>  <rect x="24" y="208" width="4" height="42" fill="#15803d" rx="2"/>  <text x="40" y="227" font-size="12.5" font-weight="700" fill="#1a1d23">On-Prem Uygulanabilirlik</text>  <text x="40" y="243" font-size="10" fill="#6b7280">--network none ölçüldü + pozitif kontrol · digest pin</text>  <rect x="560" y="220" width="80" height="18" fill="#15803d" opacity="0.85" rx="3"/>  <text x="648" y="234" font-size="12" font-weight="700" fill="#1a1d23" font-family="ui-monospace, 'SF Mono', Menlo, Consolas, monospace">%20</text>  <text x="866" y="234" font-size="10.5" font-weight="600" fill="#15803d" text-anchor="end">✓ kanıtlı</text>  <rect x="24" y="258" width="852" height="42" fill="#fff" stroke="#e5e7eb" rx="5"/>  <rect x="24" y="258" width="4" height="42" fill="#15803d" rx="2"/>  <text x="40" y="277" font-size="12.5" font-weight="700" fill="#1a1d23">Yenilikçilik ve Yaratıcılık</text>  <text x="40" y="293" font-size="10" fill="#6b7280">span vurgulama · çelişki tespiti · 5 güvenlik kapısı</text>  <rect x="560" y="270" width="40" height="18" fill="#15803d" opacity="0.85" rx="3"/>  <text x="608" y="284" font-size="12" font-weight="700" fill="#1a1d23" font-family="ui-monospace, 'SF Mono', Menlo, Consolas, monospace">%10</text>  <text x="866" y="284" font-size="10.5" font-weight="600" fill="#15803d" text-anchor="end">✓ kanıtlı</text>  <text x="24" y="328" font-size="11" font-weight="700" fill="#b91c1c">Rubriğin en ağır maddesi (%30) tek eksik olan. Kalan %70 ölçülmüş kanıta dayanıyor.</text>  <text x="24" y="344" font-size="10.5" fill="#1a1d23">Bu tablo iddiaya değil koşulan komuta dayanır: her "kanıtlı" satırın arkasında bir transkript, JSON veya test çıktısı vardır.</text>
  <text x="24" y="360" font-size="10" fill="#6b7280" font-family="ui-monospace, 'SF Mono', Menlo, Consolas, monospace">kaynak: 2026 TEKNOFEST TYDA şartname s.15 + app/docs/sartname-kod-eslesme.md</text>
</svg>
