<svg xmlns="http://www.w3.org/2000/svg" viewBox="0 0 900 380" width="900" height="380" font-family="-apple-system, 'Segoe UI', Roboto, 'Helvetica Neue', Arial, sans-serif">
  <rect width="900" height="380" fill="#f8fafc" rx="6"/>
  <text x="24" y="30" font-size="16" font-weight="700" fill="#1a1d23">23 günlük yol haritası — 3 → 26 Ağustos 2026</text>
    <line x1="250.0" y1="68" x2="250.0" y2="346" stroke="#e5e7eb"/>  <text x="250.0" y="62" font-size="9" fill='#6b7280' text-anchor="middle">3 Ağu</text>  <line x1="298.7" y1="68" x2="298.7" y2="346" stroke="#e5e7eb"/>  <text x="298.7" y="62" font-size="9" fill='#6b7280' text-anchor="middle">5 Ağu</text>  <line x1="347.4" y1="68" x2="347.4" y2="346" stroke="#e5e7eb"/>  <text x="347.4" y="62" font-size="9" fill='#6b7280' text-anchor="middle">7 Ağu</text>  <line x1="396.1" y1="68" x2="396.1" y2="346" stroke="#e5e7eb"/>  <text x="396.1" y="62" font-size="9" fill='#6b7280' text-anchor="middle">9 Ağu</text>  <line x1="444.8" y1="68" x2="444.8" y2="346" stroke="#e5e7eb"/>  <text x="444.8" y="62" font-size="9" fill='#6b7280' text-anchor="middle">11 Ağu</text>  <line x1="493.5" y1="68" x2="493.5" y2="346" stroke="#e5e7eb"/>  <text x="493.5" y="62" font-size="9" fill='#6b7280' text-anchor="middle">13 Ağu</text>  <line x1="542.2" y1="68" x2="542.2" y2="346" stroke="#e5e7eb"/>  <text x="542.2" y="62" font-size="9" fill='#6b7280' text-anchor="middle">15 Ağu</text>  <line x1="590.9" y1="68" x2="590.9" y2="346" stroke="#e5e7eb"/>  <text x="590.9" y="62" font-size="9" fill='#6b7280' text-anchor="middle">17 Ağu</text>  <line x1="639.6" y1="68" x2="639.6" y2="346" stroke="#e5e7eb"/>  <text x="639.6" y="62" font-size="9" fill='#6b7280' text-anchor="middle">19 Ağu</text>  <line x1="688.3" y1="68" x2="688.3" y2="346" stroke="#e5e7eb"/>  <text x="688.3" y="62" font-size="9" fill='#6b7280' text-anchor="middle">21 Ağu</text>  <line x1="737.0" y1="68" x2="737.0" y2="346" stroke="#e5e7eb"/>  <text x="737.0" y="62" font-size="9" fill='#6b7280' text-anchor="middle">23 Ağu</text>  <line x1="785.7" y1="68" x2="785.7" y2="346" stroke="#e5e7eb"/>  <text x="785.7" y="62" font-size="9" fill='#6b7280' text-anchor="middle">25 Ağu</text>  <text x="236" y="91" font-size="10.5" fill="#1a1d23" text-anchor="end">Anotasyon (4 kişi × 250 belge)</text>  <rect x="274.3" y="80" width="121.7" height="16" fill="#b91c1c" rx="3" opacity="0.9"/>  <text x="822" y="92" font-size="9" font-weight="700" fill="#b91c1c" font-family="ui-monospace, 'SF Mono', Menlo, Consolas, monospace">%30</text>  <text x="236" y="118" font-size="10.5" fill="#1a1d23" text-anchor="end">IAA / kappa hesabı</text>  <rect x="396.1" y="107" width="48.7" height="16" fill="#b91c1c" rx="3" opacity="0.9"/>  <text x="822" y="119" font-size="9" font-weight="700" fill="#b91c1c" font-family="ui-monospace, 'SF Mono', Menlo, Consolas, monospace">%30</text>  <text x="236" y="145" font-size="10.5" fill="#1a1d23" text-anchor="end">Gold dondurma + split</text>  <rect x="444.8" y="134" width="24.3" height="16" fill="#b91c1c" rx="3" opacity="0.9"/>  <text x="822" y="146" font-size="9" font-weight="700" fill="#b91c1c" font-family="ui-monospace, 'SF Mono', Menlo, Consolas, monospace">%30</text>  <text x="236" y="172" font-size="10.5" fill="#1a1d23" text-anchor="end">run_eval + ablasyon + GA</text>  <rect x="469.1" y="161" width="73.0" height="16" fill="#b91c1c" rx="3" opacity="0.9"/>  <text x="822" y="173" font-size="9" font-weight="700" fill="#b91c1c" font-family="ui-monospace, 'SF Mono', Menlo, Consolas, monospace">%30</text>  <text x="236" y="199" font-size="10.5" fill="#1a1d23" text-anchor="end">Veri seti Release + CC-BY-4.0</text>  <rect x="469.1" y="188" width="48.7" height="16" fill="#b45309" rx="3" opacity="0.9"/>  <text x="822" y="200" font-size="9" font-weight="700" fill="#b45309" font-family="ui-monospace, 'SF Mono', Menlo, Consolas, monospace">§9</text>  <text x="236" y="226" font-size="10.5" fill="#1a1d23" text-anchor="end">Doküman tutarsızlık temizliği</text>  <rect x="517.8" y="215" width="73.0" height="16" fill="#b45309" rx="3" opacity="0.9"/>  <text x="822" y="227" font-size="9" font-weight="700" fill="#b45309" font-family="ui-monospace, 'SF Mono', Menlo, Consolas, monospace">%20</text>  <text x="236" y="253" font-size="10.5" fill="#1a1d23" text-anchor="end">Demo videosu (5 dk + 1 dk)</text>  <rect x="590.9" y="242" width="97.4" height="16" fill="#1d4ed8" rx="3" opacity="0.9"/>  <text x="822" y="254" font-size="9" font-weight="700" fill="#1d4ed8" font-family="ui-monospace, 'SF Mono', Menlo, Consolas, monospace">§6.2</text>  <text x="236" y="280" font-size="10.5" fill="#1a1d23" text-anchor="end">Sunum PDF + PPTX</text>  <rect x="663.9" y="269" width="97.4" height="16" fill="#1d4ed8" rx="3" opacity="0.9"/>  <text x="822" y="281" font-size="9" font-weight="700" fill="#1d4ed8" font-family="ui-monospace, 'SF Mono', Menlo, Consolas, monospace">§6.4</text>  <text x="236" y="307" font-size="10.5" fill="#1a1d23" text-anchor="end">x86_64 + tam compose doğrulama</text>  <rect x="542.2" y="296" width="73.0" height="16" fill="#b45309" rx="3" opacity="0.9"/>  <text x="822" y="308" font-size="9" font-weight="700" fill="#b45309" font-family="ui-monospace, 'SF Mono', Menlo, Consolas, monospace">%20</text>  <text x="236" y="334" font-size="10.5" fill="#1a1d23" text-anchor="end">Prova + tampon</text>  <rect x="761.3" y="323" width="48.7" height="16" fill="#15803d" rx="3" opacity="0.9"/>  <text x="822" y="335" font-size="9" font-weight="700" fill="#15803d" font-family="ui-monospace, 'SF Mono', Menlo, Consolas, monospace">—</text>  <line x1="810" y1="68" x2="810" y2="346" stroke="#b91c1c" stroke-width="2"/>  <text x="804" y="362" font-size="10" font-weight="700" fill="#b91c1c" text-anchor="end">26 Ağustos — çevrimiçi süreç bitişi</text>  <text x="24" y="336" font-size="11" font-weight="700" fill="#b91c1c">Kırmızı zincir kritik yol: anotasyon gecikirse %30 ölçülemez ve zincirin tamamı kayar.</text>  <text x="24" y="352" font-size="10.5" fill="#1a1d23">Anotasyon 4 kişiye paralel dağıtılabilir tek iştir — en erken başlaması gereken kalem odur.</text>
  <text x="24" y="368" font-size="10" fill="#6b7280" font-family="ui-monospace, 'SF Mono', Menlo, Consolas, monospace">kaynak: şartname §3 takvim + app/docs/sartname-kod-eslesme.md §6 eksikleri</text>
</svg>
